<mxfile host="Electron" modified="2024-07-04T13:22:24.644Z" agent="Mozilla/5.0 (Windows NT 10.0; Win64; x64) AppleWebKit/537.36 (KHTML, like Gecko) draw.io/24.5.3 Chrome/124.0.6367.207 Electron/30.0.6 Safari/537.36" etag="jzK4cZ0kI2UxVwnN1IkA" version="24.5.3" type="device">
  <diagram name="Seite-1" id="QUpexRNWpowlQIx4BHgI">
    <mxGraphModel dx="1290" dy="621" grid="1" gridSize="10" guides="1" tooltips="1" connect="1" arrows="1" fold="1" page="1" pageScale="1" pageWidth="827" pageHeight="1169" math="0" shadow="0">
      <root>
        <mxCell id="0" />
        <mxCell id="1" parent="0" />
        <mxCell id="cHPAD3-qUDd5eEehUrkZ-1" value="User Interface Layer" style="rounded=1;whiteSpace=wrap;html=1;" vertex="1" parent="1">
          <mxGeometry x="360" y="150" width="120" height="30" as="geometry" />
        </mxCell>
        <mxCell id="cHPAD3-qUDd5eEehUrkZ-5" style="edgeStyle=orthogonalEdgeStyle;rounded=0;orthogonalLoop=1;jettySize=auto;html=1;" edge="1" parent="1" source="cHPAD3-qUDd5eEehUrkZ-2" target="cHPAD3-qUDd5eEehUrkZ-3">
          <mxGeometry relative="1" as="geometry" />
        </mxCell>
        <mxCell id="cHPAD3-qUDd5eEehUrkZ-9" style="edgeStyle=orthogonalEdgeStyle;rounded=0;orthogonalLoop=1;jettySize=auto;html=1;" edge="1" parent="1" source="cHPAD3-qUDd5eEehUrkZ-2" target="cHPAD3-qUDd5eEehUrkZ-8">
          <mxGeometry relative="1" as="geometry" />
        </mxCell>
        <mxCell id="cHPAD3-qUDd5eEehUrkZ-2" value="Audio Page" style="rounded=1;whiteSpace=wrap;html=1;" vertex="1" parent="1">
          <mxGeometry x="200" y="200" width="120" height="60" as="geometry" />
        </mxCell>
        <mxCell id="cHPAD3-qUDd5eEehUrkZ-13" style="edgeStyle=orthogonalEdgeStyle;rounded=0;orthogonalLoop=1;jettySize=auto;html=1;" edge="1" parent="1" source="cHPAD3-qUDd5eEehUrkZ-3" target="cHPAD3-qUDd5eEehUrkZ-10">
          <mxGeometry relative="1" as="geometry" />
        </mxCell>
        <mxCell id="cHPAD3-qUDd5eEehUrkZ-3" value="Aufnahmen Page" style="rounded=1;whiteSpace=wrap;html=1;" vertex="1" parent="1">
          <mxGeometry x="360" y="200" width="120" height="60" as="geometry" />
        </mxCell>
        <mxCell id="cHPAD3-qUDd5eEehUrkZ-16" style="edgeStyle=orthogonalEdgeStyle;rounded=0;orthogonalLoop=1;jettySize=auto;html=1;" edge="1" parent="1" source="cHPAD3-qUDd5eEehUrkZ-4" target="cHPAD3-qUDd5eEehUrkZ-15">
          <mxGeometry relative="1" as="geometry" />
        </mxCell>
        <mxCell id="cHPAD3-qUDd5eEehUrkZ-4" value="TextToSpeech Page" style="rounded=1;whiteSpace=wrap;html=1;" vertex="1" parent="1">
          <mxGeometry x="520" y="200" width="120" height="60" as="geometry" />
        </mxCell>
        <mxCell id="cHPAD3-qUDd5eEehUrkZ-14" style="edgeStyle=orthogonalEdgeStyle;rounded=0;orthogonalLoop=1;jettySize=auto;html=1;" edge="1" parent="1" source="cHPAD3-qUDd5eEehUrkZ-8" target="cHPAD3-qUDd5eEehUrkZ-10">
          <mxGeometry relative="1" as="geometry" />
        </mxCell>
        <mxCell id="cHPAD3-qUDd5eEehUrkZ-23" style="edgeStyle=orthogonalEdgeStyle;rounded=0;orthogonalLoop=1;jettySize=auto;html=1;" edge="1" parent="1" source="cHPAD3-qUDd5eEehUrkZ-8" target="cHPAD3-qUDd5eEehUrkZ-19">
          <mxGeometry relative="1" as="geometry">
            <Array as="points">
              <mxPoint x="260" y="500" />
              <mxPoint x="260" y="500" />
            </Array>
          </mxGeometry>
        </mxCell>
        <mxCell id="cHPAD3-qUDd5eEehUrkZ-8" value="Mikrofon" style="rounded=1;whiteSpace=wrap;html=1;" vertex="1" parent="1">
          <mxGeometry x="200" y="370" width="120" height="60" as="geometry" />
        </mxCell>
        <mxCell id="cHPAD3-qUDd5eEehUrkZ-21" style="edgeStyle=orthogonalEdgeStyle;rounded=0;orthogonalLoop=1;jettySize=auto;html=1;" edge="1" parent="1" source="cHPAD3-qUDd5eEehUrkZ-10" target="cHPAD3-qUDd5eEehUrkZ-20">
          <mxGeometry relative="1" as="geometry">
            <Array as="points">
              <mxPoint x="500" y="400" />
            </Array>
          </mxGeometry>
        </mxCell>
        <mxCell id="cHPAD3-qUDd5eEehUrkZ-10" value="Wiedergabe von Audio" style="rounded=1;whiteSpace=wrap;html=1;" vertex="1" parent="1">
          <mxGeometry x="360" y="370" width="120" height="60" as="geometry" />
        </mxCell>
        <mxCell id="cHPAD3-qUDd5eEehUrkZ-7" value="Service Layer" style="rounded=1;whiteSpace=wrap;html=1;" vertex="1" parent="1">
          <mxGeometry x="360" y="320" width="120" height="30" as="geometry" />
        </mxCell>
        <mxCell id="cHPAD3-qUDd5eEehUrkZ-15" value="Wiedergabe von Text" style="rounded=1;whiteSpace=wrap;html=1;" vertex="1" parent="1">
          <mxGeometry x="520" y="370" width="120" height="60" as="geometry" />
        </mxCell>
        <mxCell id="cHPAD3-qUDd5eEehUrkZ-17" value="Utility Layer" style="rounded=1;whiteSpace=wrap;html=1;" vertex="1" parent="1">
          <mxGeometry x="360" y="480" width="120" height="30" as="geometry" />
        </mxCell>
        <mxCell id="cHPAD3-qUDd5eEehUrkZ-19" value="Durationformatter" style="rounded=1;whiteSpace=wrap;html=1;" vertex="1" parent="1">
          <mxGeometry x="250" y="525" width="120" height="60" as="geometry" />
        </mxCell>
        <mxCell id="cHPAD3-qUDd5eEehUrkZ-20" value="LocalStorage" style="rounded=1;whiteSpace=wrap;html=1;" vertex="1" parent="1">
          <mxGeometry x="450" y="525" width="120" height="60" as="geometry" />
        </mxCell>
      </root>
    </mxGraphModel>
  </diagram>
</mxfile>
